<svg width="18" height="15" viewBox="0 0 18 15" fill="none" xmlns="http://www.w3.org/2000/svg">
<path d="M15.0844 10.0072H14.9951L14.0187 7.72997C14.1843 7.80252 14.3627 7.84114 14.5434 7.84356C14.6152 7.84356 14.684 7.81507 14.7347 7.76435C14.7854 7.71363 14.8139 7.64483 14.8139 7.5731V5.40943C14.8139 5.3377 14.7854 5.2689 14.7347 5.21818C14.684 5.16746 14.6152 5.13897 14.5434 5.13897C14.2618 5.14049 13.9876 5.22993 13.7593 5.39478C13.5309 5.55964 13.3597 5.79168 13.2696 6.05853C13.19 5.94742 13.0884 5.85383 12.9712 5.78358C12.854 5.71333 12.7235 5.66791 12.588 5.65014C12.4162 5.62794 12.2418 5.63896 12.0741 5.68259H11.8388C11.3818 5.68259 11.1789 5.41213 10.8598 4.97128L10.7002 4.7468C10.8639 4.73845 11.0225 4.68715 11.16 4.59805C11.2644 4.5223 11.3527 4.42668 11.42 4.31668C11.4873 4.20668 11.5322 4.08446 11.5522 3.95706C11.6401 3.90642 11.7169 3.83869 11.7783 3.75786C11.8396 3.67704 11.8841 3.58476 11.9092 3.48646C11.9206 3.40893 11.913 3.32978 11.8871 3.25582C11.8612 3.18186 11.8177 3.11529 11.7604 3.06184C11.65 2.87276 11.5895 2.65869 11.5846 2.43978C11.6544 2.4356 11.7199 2.40453 11.7673 2.35309C11.8147 2.30165 11.8404 2.23385 11.8388 2.16391C11.8389 1.87725 11.7819 1.59345 11.6713 1.32898C11.5608 1.06451 11.3987 0.824656 11.1946 0.623346C10.9906 0.422036 10.7485 0.263286 10.4826 0.156317C10.2166 0.0493483 9.93205 -0.00370648 9.64542 0.000235078C9.08293 0.0113081 8.54657 0.239687 8.14876 0.6375C7.75094 1.03531 7.52256 1.57168 7.51149 2.13416C7.50643 2.42093 7.55887 2.7058 7.66571 2.97197C7.77255 3.23814 7.93162 3.48021 8.13355 3.68389C8.19339 3.74337 8.2566 3.79936 8.32287 3.85158C7.2789 4.10581 6.72986 5.08488 6.44858 5.93412C6.36855 5.85347 6.27332 5.78947 6.16841 5.74584C6.06349 5.7022 5.95097 5.67979 5.83735 5.67989H2.96506C2.82083 5.67965 2.67885 5.71569 2.55218 5.78469C2.42552 5.85369 2.31825 5.95344 2.24023 6.07476C2.20114 6.13501 2.18758 6.20833 2.20255 6.27857C2.21751 6.34882 2.25976 6.41025 2.32002 6.44934C2.38027 6.48844 2.45359 6.50199 2.52384 6.48703C2.59408 6.47207 2.65551 6.42981 2.6946 6.36956C2.72375 6.32441 2.76381 6.28736 2.81109 6.26183C2.85837 6.2363 2.91133 6.22312 2.96506 6.22351H3.4546V7.03489C3.4546 7.10662 3.48309 7.17541 3.53381 7.22613C3.58453 7.27685 3.65333 7.30535 3.72506 7.30535H5.07735C5.14908 7.30535 5.21788 7.27685 5.2686 7.22613C5.31932 7.17541 5.34781 7.10662 5.34781 7.03489V6.22081H5.83735C5.87961 6.22081 5.92146 6.22913 5.96051 6.24531C5.99956 6.26148 6.03504 6.28519 6.06493 6.31507C6.09481 6.34496 6.11852 6.38044 6.13469 6.41949C6.15087 6.45854 6.15919 6.50039 6.15919 6.54265V8.60626C6.15848 8.69115 6.12426 8.77232 6.06397 8.83209C6.00369 8.89187 5.92224 8.9254 5.83735 8.9254H2.96506C2.88761 8.92754 2.81206 8.90119 2.75274 8.85134C2.69342 8.80149 2.65445 8.73161 2.64322 8.65494H3.18414C3.25587 8.65494 3.32466 8.62645 3.37538 8.57573C3.4261 8.52501 3.4546 8.45621 3.4546 8.38448C3.4546 8.31275 3.4261 8.24396 3.37538 8.19324C3.32466 8.14252 3.25587 8.11402 3.18414 8.11402H2.64322V7.5731H2.91368C2.98541 7.5731 3.0542 7.54461 3.10492 7.49389C3.15564 7.44317 3.18414 7.37437 3.18414 7.30264C3.18414 7.23091 3.15564 7.16212 3.10492 7.1114C3.0542 7.06068 2.98541 7.03218 2.91368 7.03218H1.56138C1.48965 7.03218 1.42086 7.06068 1.37014 7.1114C1.31941 7.16212 1.29092 7.23091 1.29092 7.30264C1.29092 7.37437 1.31941 7.44317 1.37014 7.49389C1.42086 7.54461 1.48965 7.5731 1.56138 7.5731H2.1023V8.11402H1.02046C0.948729 8.11402 0.879937 8.14252 0.829216 8.19324C0.778495 8.24396 0.75 8.31275 0.75 8.38448C0.75 8.45621 0.778495 8.52501 0.829216 8.57573C0.879937 8.62645 0.948729 8.65494 1.02046 8.65494H2.1023C2.11472 8.87404 2.21042 9.0801 2.36981 9.23093C2.52919 9.38177 2.74021 9.46598 2.95966 9.46632H4.31195C4.1868 9.58905 4.0802 9.72936 3.99552 9.88283C3.63434 10.5911 3.44882 11.3759 3.4546 12.1709C3.4546 12.2426 3.48309 12.3114 3.53381 12.3622C3.58453 12.4129 3.65333 12.4414 3.72506 12.4414H4.55537C4.62458 12.9612 4.88021 13.4381 5.27471 13.7836C5.66921 14.129 6.17574 14.3195 6.70011 14.3195C7.22448 14.3195 7.73101 14.129 8.12551 13.7836C8.52002 13.4381 8.77564 12.9612 8.84486 12.4414H12.9396C12.9917 12.8546 13.1619 13.244 13.4298 13.5628C13.6977 13.8817 14.052 14.1165 14.4501 14.2389C14.8481 14.3614 15.2731 14.3664 15.6739 14.2533C16.0747 14.1402 16.4344 13.9138 16.7097 13.6013C16.9851 13.2888 17.1644 12.9035 17.2261 12.4917C17.2878 12.0798 17.2294 11.6588 17.0578 11.2794C16.8862 10.8999 16.6087 10.578 16.2586 10.3523C15.9086 10.1267 15.5008 10.0069 15.0844 10.0072ZM4.80689 6.76172H3.99552V6.22081H4.80689V6.76172ZM14.273 5.72586V7.25667C14.1145 7.20091 13.9772 7.09734 13.8801 6.96024C13.783 6.82314 13.7309 6.65927 13.7309 6.49127C13.7309 6.32326 13.783 6.15939 13.8801 6.02229C13.9772 5.88519 14.1145 5.78162 14.273 5.72586ZM12.5096 6.18294C12.6156 6.19881 12.7141 6.24711 12.7916 6.3212C12.8691 6.39529 12.9217 6.49154 12.9423 6.59674L13.0126 6.76172C12.6361 6.9553 12.216 7.04845 11.7929 7.03218C11.7556 6.87152 11.7751 6.70291 11.8481 6.55501C11.9211 6.4071 12.043 6.28901 12.1931 6.22081C12.2951 6.18773 12.4028 6.17576 12.5096 6.18565V6.18294ZM11.1762 3.54326C11.1312 3.56594 11.0934 3.60075 11.0671 3.64376C11.0409 3.68677 11.0271 3.73627 11.0275 3.78667C11.0255 3.85476 11.0093 3.92168 10.9799 3.98315C10.9506 4.04462 10.9088 4.0993 10.8571 4.14368C10.7029 4.24645 10.4162 4.22211 10.0457 4.07606C10.0259 4.07387 10.006 4.07387 9.9862 4.07606L9.94563 4.0409V3.00504C9.94563 2.85369 10.0058 2.70854 10.1128 2.60152C10.2198 2.4945 10.3649 2.43437 10.5163 2.43437H11.0275C11.036 2.78447 11.1459 3.12458 11.3439 3.41344C11.295 3.46577 11.2384 3.51045 11.1762 3.54596V3.54326ZM8.05241 2.13957C8.06594 1.71994 8.23868 1.32118 8.53556 1.0243C8.83244 0.727425 9.23119 0.554679 9.65083 0.541154H9.67517C10.0588 0.540904 10.4302 0.676604 10.7233 0.924168C11.0164 1.17173 11.2123 1.51515 11.2763 1.89345H10.5163C10.2217 1.89417 9.93938 2.01151 9.73107 2.21982C9.52276 2.42813 9.40542 2.71045 9.40471 3.00504V3.76503C9.0227 3.7005 8.67639 3.50143 8.42837 3.20381C8.18035 2.90619 8.047 2.52965 8.05241 2.14228V2.13957ZM8.86379 4.32759C9.74819 4.32759 10.0727 4.79007 10.4162 5.2769C10.6651 5.63391 10.9571 6.02337 11.444 6.1613C11.2908 6.40875 11.2216 6.69899 11.2465 6.98891C10.9109 6.91558 10.5942 6.77277 10.3171 6.56967C10.0399 6.36658 9.80836 6.1077 9.6373 5.80971C9.62257 5.77396 9.60034 5.74179 9.57212 5.71536C9.5439 5.68893 9.51033 5.66886 9.4737 5.6565C9.43706 5.64415 9.3982 5.63979 9.35974 5.64372C9.32127 5.64765 9.2841 5.65979 9.25072 5.67931C9.21735 5.69883 9.18854 5.72527 9.16625 5.75687C9.14396 5.78846 9.12871 5.82447 9.12152 5.86246C9.11432 5.90045 9.11536 5.93954 9.12455 5.97709C9.13375 6.01465 9.15089 6.0498 9.17482 6.08017C9.27286 6.24469 9.38508 6.40035 9.51019 6.54536L9.48585 6.56158C9.23373 6.85158 9.05638 7.19885 8.96927 7.5731H6.70011V7.30264C6.71904 7.13766 7.02737 4.32759 8.86379 4.32759ZM6.70011 8.60356V8.11402H9.13425C9.18834 8.11402 10.4865 8.13025 10.4865 9.46632V10.8186H9.40471V10.2777C9.41154 10.0983 9.38124 9.91938 9.3157 9.75222C9.25016 9.58506 9.15079 9.43324 9.02383 9.30628C8.89687 9.17932 8.74505 9.07995 8.57789 9.01441C8.41073 8.94887 8.23183 8.91857 8.05241 8.9254H6.63791C6.67921 8.82314 6.70034 8.71385 6.70011 8.60356ZM6.70011 13.7937C6.3169 13.7933 5.9462 13.6573 5.65364 13.4098C5.36109 13.1623 5.16556 12.8192 5.1017 12.4414H5.65614C5.71842 12.6706 5.85438 12.8729 6.04306 13.0171C6.23173 13.1614 6.46262 13.2395 6.70011 13.2395C6.9376 13.2395 7.1685 13.1614 7.35717 13.0171C7.54584 12.8729 7.6818 12.6706 7.74409 12.4414H8.29853C8.23466 12.8192 8.03914 13.1623 7.74658 13.4098C7.45403 13.6573 7.08332 13.7933 6.70011 13.7937ZM6.23492 12.4414H7.1653C7.11741 12.5221 7.04933 12.589 6.96777 12.6354C6.88621 12.6818 6.79397 12.7063 6.70011 12.7063C6.60625 12.7063 6.51401 12.6818 6.43245 12.6354C6.35089 12.589 6.28282 12.5221 6.23492 12.4414ZM3.99552 11.9005C4.03002 11.2779 4.19789 10.6701 4.48775 10.1181C4.59541 9.91796 4.75606 9.75127 4.95212 9.6363C5.14818 9.52134 5.37209 9.46253 5.59934 9.46632H8.05241C8.1605 9.46046 8.26861 9.47744 8.36971 9.51615C8.4708 9.55485 8.56261 9.61441 8.63915 9.69096C8.7157 9.7675 8.77526 9.85931 8.81396 9.9604C8.85267 10.0615 8.86964 10.1696 8.86379 10.2777V11.0891C8.86379 11.3817 8.95869 11.6664 9.13425 11.9005H3.99552ZM10.2161 11.9005C10.0487 11.9 9.88553 11.8478 9.74899 11.7509C9.61244 11.6541 9.50919 11.5174 9.45339 11.3595H10.757C10.8276 11.355 10.8984 11.3652 10.9648 11.3896C11.0312 11.414 11.0918 11.4519 11.1427 11.5011C11.1937 11.5502 11.2338 11.6094 11.2605 11.6749C11.2872 11.7404 11.3 11.8108 11.2979 11.8815C11.2083 11.8935 11.1179 11.8998 11.0275 11.9005H10.2161ZM11.9497 11.584C11.9107 11.6282 11.8661 11.6673 11.8172 11.7003C11.7875 11.4958 11.6959 11.3054 11.5547 11.1545C11.4135 11.0036 11.2295 10.8996 11.0275 10.8565V9.46632C11.0519 9.02502 10.9107 8.59051 10.6315 8.24784C10.3524 7.90517 9.95541 7.67903 9.5183 7.61367C9.58763 7.37109 9.70642 7.14548 9.86719 6.95105C9.87419 6.94158 9.88051 6.93164 9.88613 6.9213C10.3059 7.26182 10.8111 7.48071 11.3466 7.55417L12.1093 10.87C12.1521 11.1197 12.0948 11.3763 11.9497 11.584ZM12.6502 10.7591L11.9065 7.5731C12.3641 7.57732 12.8163 7.47354 13.2263 7.27019L14.5029 10.2452L13.3237 11.9005H12.3798C12.4985 11.7378 12.5835 11.553 12.63 11.357C12.6764 11.1611 12.6833 10.9578 12.6502 10.7591ZM15.0844 11.9005H14.6192C14.6787 11.7973 14.7706 11.7167 14.8806 11.6712C14.9906 11.6256 15.1126 11.6176 15.2276 11.6484C15.3426 11.6792 15.4443 11.7472 15.5168 11.8416C15.5892 11.9361 15.6285 12.0518 15.6285 12.1709C15.6285 12.29 15.5892 12.4057 15.5168 12.5002C15.4443 12.5947 15.3426 12.6626 15.2276 12.6934C15.1126 12.7242 14.9906 12.7162 14.8806 12.6707C14.7706 12.6251 14.6787 12.5445 14.6192 12.4414H15.0844C15.1561 12.4414 15.2249 12.4129 15.2756 12.3622C15.3263 12.3114 15.3548 12.2426 15.3548 12.1709C15.3548 12.0992 15.3263 12.0304 15.2756 11.9797C15.2249 11.929 15.1561 11.9005 15.0844 11.9005ZM13.9863 11.9005L14.081 11.7679C14.0646 11.8112 14.0511 11.8555 14.0404 11.9005H13.9863ZM15.0844 13.7937C14.7012 13.7933 14.3304 13.6573 14.0379 13.4098C13.7453 13.1623 13.5498 12.8192 13.4859 12.4414H14.0404C14.0996 12.6695 14.2317 12.8721 14.4166 13.0182C14.6016 13.1644 14.8291 13.2462 15.0648 13.2511C15.3004 13.2561 15.5312 13.1839 15.7221 13.0457C15.913 12.9074 16.0535 12.7106 16.1223 12.4851C16.191 12.2597 16.1843 12.0179 16.1031 11.7967C16.0218 11.5754 15.8706 11.3867 15.6723 11.2593C15.474 11.1319 15.2395 11.0728 15.0045 11.0909C14.7695 11.1089 14.5468 11.2033 14.3703 11.3595L14.9464 10.5482C14.9924 10.5482 15.0384 10.5482 15.0844 10.5482C15.5147 10.5482 15.9275 10.7191 16.2318 11.0235C16.5361 11.3278 16.7071 11.7405 16.7071 12.1709C16.7071 12.6013 16.5361 13.0141 16.2318 13.3184C15.9275 13.6227 15.5147 13.7937 15.0844 13.7937Z" fill="#F54749"/>
</svg>
