<svg width="34" height="34" viewBox="0 0 34 34" fill="none" xmlns="http://www.w3.org/2000/svg">
<path d="M25.0884 25.8472C24.4596 26.2991 23.7046 26.5418 22.9303 26.5408C22.4123 26.5404 21.9 26.4337 21.4248 26.2275L21.0343 24.7273L20.289 21.8551L20.1297 21.2385C20.1917 21.1045 20.2266 20.9595 20.2325 20.812C20.2337 20.6496 20.1911 20.4898 20.1092 20.3496C20.0355 20.2173 19.9314 20.1045 19.8055 20.0205C19.6795 19.9365 19.5354 19.8837 19.3849 19.8666C19.2513 19.8563 19.0715 19.8614 17.232 19.8614C16.4143 19.8615 15.6299 19.5377 15.0502 18.9609C14.4706 18.3842 14.1429 17.6013 14.1389 16.7836V15.7506L19.2976 16.2953L20.5308 16.4237L21.944 16.5727C22.471 16.6287 22.9559 16.886 23.2977 17.291C23.6394 17.696 23.8116 18.2173 23.7781 18.7461L23.4749 23.6429C23.4569 23.9391 23.5031 24.2358 23.6104 24.5125C23.7177 24.7892 23.8836 25.0394 24.0967 25.246C24.2453 25.3931 24.4172 25.5146 24.6054 25.6057L25.0884 25.8472Z" fill="#E0925B"/>
<path d="M8.78997 25.2203L8.02947 27.2499C7.71745 27.2839 7.40443 27.1954 7.15626 27.0033H7.15113L7.0586 26.9259C6.9457 26.8193 6.85526 26.6912 6.79262 26.5492C6.72997 26.4071 6.69638 26.2539 6.69382 26.0987C6.69385 26.0351 6.699 25.9716 6.70922 25.9089C6.75291 25.6475 6.88489 25.4091 7.08313 25.2333C7.28137 25.0575 7.53389 24.955 7.79857 24.9428C7.96492 24.9336 8.13133 24.96 8.28668 25.0202L8.46654 25.0922L8.78997 25.2203Z" fill="#FED673"/>
<path d="M15.0585 30.3171C15.0572 30.6041 15.0157 30.8895 14.9353 31.165C14.7523 31.7643 14.3803 32.2884 13.8749 32.6589C13.3695 33.0295 12.7578 33.2266 12.1311 33.2208C11.5045 33.215 10.8965 33.0067 10.398 32.6269C9.89954 32.2471 9.5373 31.7162 9.3654 31.1136C9.28836 30.8552 9.25026 30.5867 9.25234 30.3171C9.25145 30.0547 9.28779 29.7935 9.36027 29.5412C9.53336 28.9169 9.9103 28.3685 10.4311 27.9832C10.9519 27.5979 11.5866 27.3979 12.2342 27.4151C12.8818 27.4322 13.5051 27.6655 14.0048 28.0778C14.5045 28.4901 14.8519 29.0577 14.9917 29.6902C15.0351 29.8964 15.0575 30.1064 15.0585 30.3171Z" fill="#FED673"/>
<path d="M32.9704 30.1376C32.971 30.4889 32.9066 30.8373 32.7806 31.1653C32.5724 31.7165 32.2013 32.1912 31.7166 32.5262C31.232 32.8612 30.6568 33.0407 30.0676 33.0407C29.4784 33.0407 28.9032 32.8612 28.4185 32.5262C27.9338 32.1912 27.5627 31.7165 27.3546 31.1653C27.2286 30.8373 27.1642 30.4889 27.1647 30.1376C27.1626 29.9824 27.1764 29.8275 27.2058 29.6751C27.3146 28.9944 27.6625 28.3748 28.1871 27.9274C28.7116 27.4801 29.3784 27.2344 30.0678 27.2344C30.7572 27.2344 31.424 27.4801 31.9485 27.9274C32.473 28.3748 32.8209 28.9944 32.9298 29.6751C32.959 29.8275 32.9726 29.9824 32.9704 30.1376Z" fill="#FED673"/>
<path d="M15.7522 30.1376C15.7522 31.0915 15.3733 32.0064 14.6988 32.6809C14.0243 33.3554 13.1094 33.7343 12.1555 33.7343C11.2016 33.7343 10.2867 33.3554 9.61218 32.6809C8.93766 32.0064 8.55872 31.0915 8.55872 30.1376C8.55872 29.6032 8.8465 29.4079 9.17043 29.4645C9.23919 29.474 9.30446 29.5006 9.36028 29.5418C9.4438 29.5963 9.50966 29.6738 9.54982 29.7651C9.58997 29.8563 9.60269 29.9573 9.5864 30.0557V30.1379C9.58463 30.4764 9.64978 30.8119 9.77809 31.1251C9.90641 31.4384 10.0954 31.7232 10.3341 31.9632C10.5728 32.2032 10.8567 32.3936 11.1692 32.5236C11.4818 32.6535 11.817 32.7204 12.1555 32.7204C12.494 32.7204 12.8292 32.6535 13.1418 32.5236C13.4544 32.3936 13.7382 32.2032 13.9769 31.9632C14.2157 31.7232 14.4046 31.4384 14.5329 31.1251C14.6613 30.8119 14.7264 30.4764 14.7246 30.1379C14.7239 30.046 14.7484 29.9557 14.7955 29.8769C14.8426 29.798 14.9106 29.7336 14.9918 29.6908C15.066 29.6455 15.1516 29.6224 15.2385 29.624C15.3746 29.6244 15.505 29.6787 15.6012 29.7749C15.6975 29.8711 15.7518 30.0015 15.7522 30.1376Z" fill="#7C737D"/>
<path d="M33.6641 30.1376C33.6641 30.61 33.571 31.0777 33.3903 31.514C33.2095 31.9504 32.9446 32.3469 32.6106 32.6809C32.2766 33.0149 31.8801 33.2798 31.4437 33.4606C31.0073 33.6414 30.5396 33.7344 30.0673 33.7344C29.595 33.7344 29.1272 33.6414 28.6909 33.4606C28.2545 33.2798 27.858 33.0149 27.524 32.6809C27.19 32.3469 26.9251 31.9504 26.7443 31.514C26.5636 31.0777 26.4705 30.61 26.4705 30.1376C26.4709 30.0015 26.5252 29.871 26.6215 29.7747C26.7177 29.6785 26.8482 29.6242 26.9844 29.6238C27.0608 29.625 27.1362 29.6425 27.2053 29.6752C27.2932 29.7162 27.3675 29.7816 27.4194 29.8635C27.4713 29.9455 27.4987 30.0406 27.4982 30.1376C27.4986 30.4909 27.5704 30.8404 27.7091 31.1653C27.91 31.6236 28.24 32.0135 28.6589 32.2872C29.0777 32.561 29.5672 32.7067 30.0676 32.7067C30.568 32.7067 31.0575 32.561 31.4764 32.2872C31.8952 32.0135 32.2252 31.6236 32.4261 31.1653C32.5648 30.8404 32.6365 30.4909 32.637 30.1376C32.6365 30.0406 32.6638 29.9455 32.7157 29.8635C32.7676 29.7816 32.8419 29.7162 32.9299 29.6752C32.999 29.6425 33.0743 29.625 33.1508 29.6238C33.2868 29.6243 33.4171 29.6787 33.5133 29.7749C33.6095 29.8712 33.6636 30.0016 33.6641 30.1376Z" fill="#7C737D"/>
<path d="M14.9353 31.1653C14.7523 31.7647 14.3803 32.2888 13.8749 32.6593C13.3695 33.0298 12.7578 33.2269 12.1311 33.2211C11.5045 33.2154 10.8965 33.007 10.398 32.6272C9.89953 32.2474 9.53729 31.7165 9.36539 31.1139C9.50715 31.145 9.6519 31.1605 9.79703 31.1601C9.83456 31.1644 9.87234 31.1662 9.9101 31.1653H14.9353Z" fill="#FED673"/>
<path d="M32.7803 31.1653C32.5721 31.7165 32.201 32.1912 31.7164 32.5262C31.2317 32.8613 30.6565 33.0407 30.0673 33.0407C29.4781 33.0407 28.9029 32.8613 28.4182 32.5262C27.9336 32.1912 27.5624 31.7165 27.3543 31.1653H32.7803Z" fill="#FED673"/>
<path d="M15.6032 31.1653C15.3745 31.9312 14.8974 32.5991 14.2471 33.0637C13.5968 33.5284 12.8103 33.7633 12.0117 33.7315C11.2131 33.6997 10.4478 33.4029 9.83656 32.888C9.22529 32.3731 8.80281 31.6694 8.63577 30.8878C8.86722 30.9969 9.11282 31.073 9.36541 31.1139C9.50717 31.1451 9.65191 31.1606 9.79705 31.1601C9.99689 31.6192 10.3263 32.01 10.7449 32.2846C11.1635 32.5593 11.6531 32.7059 12.1538 32.7064C12.6544 32.707 13.1444 32.5615 13.5636 32.2877C13.9828 32.014 14.3131 31.6239 14.5139 31.1653H15.6032Z" fill="#7C737D"/>
<path d="M33.5151 31.1653C33.2935 31.9076 32.8383 32.5586 32.2171 33.0215C31.5959 33.4844 30.842 33.7344 30.0673 33.7344C29.2926 33.7344 28.5386 33.4844 27.9174 33.0215C27.2962 32.5586 26.841 31.9076 26.6195 31.1653H27.7086C27.9094 31.6236 28.2394 32.0134 28.6583 32.2872C29.0771 32.5609 29.5667 32.7067 30.067 32.7067C30.5674 32.7067 31.0569 32.5609 31.4758 32.2872C31.8946 32.0134 32.2247 31.6236 32.4255 31.1653H33.5151Z" fill="#7C737D"/>
<path d="M9.79704 31.1601C9.6519 31.1605 9.50716 31.145 9.36539 31.1139C9.11281 31.073 8.86721 30.9968 8.63576 30.8877C8.58386 30.6411 8.55794 30.3896 8.55842 30.1376C8.55842 29.6032 8.84621 29.4079 9.17014 29.4645C9.23889 29.474 9.30416 29.5006 9.35998 29.5418C9.4435 29.5963 9.50936 29.6738 9.54952 29.7651C9.58967 29.8563 9.60239 29.9573 9.5861 30.0557V30.1379C9.58655 30.4894 9.65831 30.8371 9.79704 31.1601Z" fill="#6C646D"/>
<path d="M14.9917 29.6906C14.9105 29.7334 14.8426 29.7978 14.7954 29.8766C14.7483 29.9555 14.7238 30.0458 14.7245 30.1376C14.7241 30.4909 14.6524 30.8404 14.5136 31.1653H9.91011C9.87235 31.1662 9.83457 31.1644 9.79705 31.1601C9.65828 30.8371 9.58652 30.4892 9.58611 30.1376V30.0554C9.60239 29.9571 9.58968 29.8561 9.54952 29.7649C9.50937 29.6736 9.44351 29.596 9.35999 29.5416C9.53307 28.9173 9.91002 28.3689 10.4308 27.9836C10.9516 27.5983 11.5863 27.3983 12.2339 27.4154C12.8815 27.4326 13.5048 27.6659 14.0045 28.0781C14.5042 28.4904 14.8516 29.058 14.9915 29.6906H14.9917Z" fill="#FEC845"/>
<path d="M15.7522 30.1376C15.7528 30.4856 15.7026 30.8318 15.6032 31.1653H14.5139C14.6527 30.8404 14.7244 30.4909 14.7248 30.1376C14.7241 30.0457 14.7486 29.9554 14.7957 29.8766C14.8428 29.7977 14.9108 29.7334 14.992 29.6905C15.0662 29.6453 15.1518 29.6221 15.2387 29.6237C15.3748 29.6242 15.5052 29.6785 15.6014 29.7748C15.6976 29.8711 15.7518 30.0015 15.7522 30.1376Z" fill="#6C646D"/>
<path d="M27.7086 31.1653H26.6195C26.5201 30.8318 26.4699 30.4856 26.4705 30.1376C26.4709 30.0015 26.5252 29.871 26.6215 29.7747C26.7178 29.6785 26.8482 29.6242 26.9844 29.6238C27.0608 29.625 27.1362 29.6425 27.2053 29.6752C27.2932 29.7162 27.3675 29.7816 27.4194 29.8635C27.4713 29.9455 27.4987 30.0406 27.4982 30.1376C27.4985 30.4909 27.57 30.8404 27.7086 31.1653Z" fill="#6C646D"/>
<path d="M32.9293 29.6751C32.8414 29.7162 32.7671 29.7815 32.7152 29.8635C32.6633 29.9454 32.636 30.0406 32.6365 30.1376C32.636 30.4908 32.5643 30.8404 32.4255 31.1653H27.7086C27.5698 30.8404 27.4981 30.4908 27.4977 30.1376C27.4981 30.0406 27.4708 29.9454 27.4189 29.8635C27.367 29.7815 27.2927 29.7162 27.2047 29.6751C27.3136 28.9944 27.6615 28.3748 28.186 27.9274C28.7106 27.4801 29.3774 27.2344 30.0667 27.2344C30.7561 27.2344 31.4229 27.4801 31.9475 27.9274C32.472 28.3748 32.8199 28.9944 32.9287 29.6751H32.9293Z" fill="#FEC845"/>
<path d="M33.6641 30.1376C33.6646 30.4856 33.6144 30.8318 33.5151 31.1653H32.4258C32.5645 30.8404 32.6363 30.4909 32.6367 30.1376C32.6362 30.0406 32.6636 29.9455 32.7155 29.8635C32.7674 29.7816 32.8417 29.7162 32.9296 29.6752C32.9987 29.6425 33.074 29.625 33.1505 29.6238C33.2866 29.6243 33.417 29.6786 33.5132 29.7748C33.6094 29.8711 33.6636 30.0015 33.6641 30.1376Z" fill="#6C646D"/>
<path d="M25.0884 25.8472C24.4596 26.2991 23.7046 26.5417 22.9303 26.5408C22.4123 26.5404 21.9 26.4337 21.4248 26.2274L21.0343 24.7273C21.4276 25.1212 21.9339 25.3828 22.4827 25.4758C23.0315 25.5688 23.5956 25.4886 24.0967 25.2463C24.2453 25.3934 24.4172 25.5149 24.6054 25.6059L25.0884 25.8472Z" fill="#DB7A35"/>
<path d="M33.6641 30.1376H9.91011C9.58019 30.1376 9.25513 30.0581 8.96247 29.9058C8.66981 29.7535 8.41818 29.5329 8.22888 29.2627C8.03959 28.9925 7.91821 28.6806 7.87504 28.3535C7.83187 28.0264 7.86817 27.6938 7.98088 27.3837L8.02947 27.2501L8.78997 25.2204L9.54526 23.2011L9.92031 22.1941C10.4795 22.6784 11.1947 22.9448 11.9346 22.9442H17.3708C18.0428 22.945 18.6964 22.7247 19.2308 22.3174C19.2051 22.7109 19.2275 23.106 19.2976 23.4941C19.832 26.3149 22.9609 27.3683 25.0884 25.8474C25.5747 25.5066 25.9715 25.0536 26.2453 24.5267C26.5191 23.9998 26.6616 23.4146 26.6609 22.8208C26.6609 22.4457 26.029 16.1668 25.8491 14.2092C25.8286 13.9625 25.8131 13.7878 25.8081 13.6953H28.9834L29.9967 25.7009C30.0134 25.9187 30.1001 26.1252 30.2437 26.2897C30.3873 26.4542 30.5803 26.568 30.7938 26.614C31.6048 26.7809 32.3334 27.2227 32.8564 27.8647C33.3794 28.5067 33.6647 29.3096 33.6641 30.1376Z" fill="#F16069"/>
<path d="M28.9832 13.6953H25.8078C25.8128 13.7878 25.8283 13.9625 25.8488 14.2092C25.8746 14.4763 25.9051 14.8309 25.9464 15.2368H26.4705C26.6297 15.2361 26.7883 15.2172 26.9432 15.1805C27.1805 15.5157 27.4947 15.7891 27.8595 15.9778C28.2243 16.1664 28.629 16.2648 29.0397 16.2647H29.1992L28.9832 13.6953Z" fill="#EF444E"/>
<path d="M27.4982 13.1814C27.498 13.362 27.4502 13.5392 27.3594 13.6953C27.3152 13.7731 27.2599 13.8442 27.1953 13.9062C27.1011 14.0028 26.9885 14.0794 26.8641 14.1315C26.7396 14.1836 26.606 14.2101 26.4711 14.2094H20.6492C20.4747 14.6014 20.2702 14.9793 20.0375 15.3398C19.8212 15.6807 19.5735 16.0007 19.2976 16.2955L14.1389 15.7509C14.1414 15.4073 14.1775 15.0649 14.2467 14.7284C14.7966 12.1232 17.2731 9.69802 18.8712 8.36722C19.1794 8.10516 19.4517 7.88909 19.6779 7.71985C20.1361 8.17142 20.702 8.4986 21.3221 8.6704C21.6164 8.98162 21.8067 9.37665 21.8667 9.80082C22.0054 10.6743 21.6768 11.63 21.3375 12.1541H26.4703C26.7426 12.1548 27.0036 12.2633 27.1961 12.4558C27.3887 12.6483 27.4973 12.9092 27.4982 13.1814Z" fill="#FED673"/>
<path d="M20.0375 15.3396C19.8212 15.6805 19.5735 16.0004 19.2976 16.2953L14.1389 15.7506C14.1414 15.4071 14.1775 15.0647 14.2467 14.7281L20.0375 15.3396Z" fill="#FEC845"/>
<path d="M11.8987 5.73109C11.8987 2.89327 9.3682 0.335938 6.24668 0.335938C3.12515 0.335938 0.594604 2.89327 0.594604 5.73109C0.594604 8.5689 3.12515 11.1262 6.24668 11.1262C6.4091 11.1262 6.56885 11.1152 6.72782 11.1017L8.8161 12.6677V10.5061C10.6445 9.57978 11.8987 7.72691 11.8987 5.73109Z" fill="#F16069"/>
<path d="M7.75734 10.0729L8.81561 10.8693V12.6677L6.72965 11.1008C6.57039 11.1162 6.41107 11.1265 6.24668 11.1265C3.12262 11.1265 0.594604 8.56763 0.594604 5.73136C0.594604 4.1025 1.42703 2.56617 2.7321 1.55396C2.02391 2.45205 1.63371 3.55972 1.62264 4.70339C1.62264 7.53973 4.15059 10.0985 7.27464 10.0985C7.43875 10.0985 7.59801 10.0883 7.75734 10.0729Z" fill="#EF353F"/>
<path d="M6.24668 2.90503C8.03768 2.90503 9.3296 4.19878 9.3296 5.98802V7.52948C9.32953 7.59704 9.31614 7.66392 9.29022 7.7263C9.2643 7.78868 9.22634 7.84535 9.17851 7.89306C9.13068 7.94077 9.07392 7.97859 9.01148 8.00436C8.94903 8.03013 8.88212 8.04335 8.81456 8.04326H3.67873C3.61118 8.04334 3.54427 8.03011 3.48183 8.00434C3.4194 7.97856 3.36265 7.94074 3.31483 7.89303C3.26701 7.84532 3.22905 7.78866 3.20313 7.72628C3.17721 7.66391 3.16383 7.59703 3.16376 7.52948V5.98802C3.16376 4.19878 4.45561 2.90503 6.24668 2.90503Z" fill="#E69B6C"/>
<path d="M9.36314 7.01558C8.85513 7.01558 8.58211 6.83572 8.36273 6.69116C8.18969 6.57704 8.07537 6.50174 7.80361 6.50174C7.53185 6.50174 7.41752 6.57704 7.24448 6.69116C7.02511 6.83572 6.75229 7.01558 6.24408 7.01558C5.73586 7.01558 5.46361 6.83544 5.2443 6.69095C5.0719 6.57704 4.95778 6.50174 4.68693 6.50174C4.41609 6.50174 4.3019 6.57704 4.1295 6.69095C3.9104 6.83544 3.63731 7.01558 3.13022 7.01558C2.88412 7.01558 2.685 6.78552 2.685 6.50174C2.685 6.21796 2.88433 5.98796 3.13022 5.98796C3.40106 5.98796 3.51497 5.91266 3.68737 5.79875C3.90647 5.65426 4.17956 5.47412 4.68693 5.47412C5.19431 5.47412 5.4674 5.65426 5.68643 5.79875C5.85904 5.91266 5.97295 5.98796 6.24408 5.98796C6.5152 5.98796 6.63016 5.91266 6.8032 5.79854C7.02251 5.65398 7.29539 5.47412 7.80361 5.47412C8.31183 5.47412 8.58471 5.65398 8.80401 5.79854C8.97705 5.91266 9.09145 5.98796 9.36314 5.98796C9.60923 5.98796 9.80836 6.21803 9.80836 6.50174C9.80836 6.78545 9.60902 7.01558 9.36314 7.01558Z" fill="#85CCAB"/>
<path d="M6.24668 2.90503C8.03768 2.90503 9.3296 4.19878 9.3296 5.98802V7.52948C9.32953 7.59704 9.31614 7.66392 9.29022 7.7263C9.2643 7.78868 9.22634 7.84535 9.17851 7.89306C9.13068 7.94077 9.07392 7.97859 9.01148 8.00436C8.94903 8.03013 8.88212 8.04335 8.81456 8.04326H3.67873C3.61118 8.04334 3.54427 8.03011 3.48183 8.00434C3.4194 7.97856 3.36265 7.94074 3.31483 7.89303C3.26701 7.84532 3.22905 7.78866 3.20313 7.72628C3.17721 7.66391 3.16383 7.59703 3.16376 7.52948V5.98802C3.16376 4.19878 4.45561 2.90503 6.24668 2.90503Z" fill="#E69B6C"/>
<path d="M9.3296 7.52952C9.32919 7.66567 9.27492 7.79613 9.17864 7.89239C9.08237 7.98866 8.9519 8.04291 8.81576 8.0433H3.67753C3.54139 8.04291 3.41094 7.98865 3.31467 7.89239C3.2184 7.79612 3.16415 7.66566 3.16376 7.52952V5.98806C3.16376 4.95524 3.59534 4.08175 4.30985 3.53711C3.90907 4.05088 3.67781 4.71885 3.67781 5.47422C3.67852 5.5792 3.68713 5.68398 3.70355 5.78767C3.7532 6.12498 3.88952 6.44364 4.0992 6.71249C4.15527 6.78749 4.2171 6.85802 4.28412 6.92343C4.47327 7.11566 4.69883 7.26828 4.94761 7.37237C5.1964 7.47647 5.46343 7.52997 5.73312 7.52973L9.3296 7.52952Z" fill="#E28044"/>
<path d="M9.36314 7.01558C8.85513 7.01558 8.58211 6.83572 8.36273 6.69116C8.18969 6.57704 8.07537 6.50174 7.80361 6.50174C7.53185 6.50174 7.41752 6.57704 7.24448 6.69116C7.02511 6.83572 6.75229 7.01558 6.24408 7.01558C5.73586 7.01558 5.46361 6.83544 5.2443 6.69095C5.0719 6.57704 4.95778 6.50174 4.68693 6.50174C4.41609 6.50174 4.3019 6.57704 4.1295 6.69095C3.9104 6.83544 3.63731 7.01558 3.13022 7.01558C2.88412 7.01558 2.685 6.78552 2.685 6.50174C2.685 6.21796 2.88433 5.98796 3.13022 5.98796C3.40106 5.98796 3.51497 5.91266 3.68737 5.79875C3.90647 5.65426 4.17956 5.47412 4.68693 5.47412C5.19431 5.47412 5.4674 5.65426 5.68643 5.79875C5.85904 5.91266 5.97295 5.98796 6.24408 5.98796C6.5152 5.98796 6.63016 5.91266 6.8032 5.79854C7.02251 5.65398 7.29539 5.47412 7.80361 5.47412C8.31183 5.47412 8.58471 5.65398 8.80401 5.79854C8.97705 5.91266 9.09145 5.98796 9.36314 5.98796C9.60923 5.98796 9.80836 6.21803 9.80836 6.50174C9.80836 6.78545 9.60902 7.01558 9.36314 7.01558Z" fill="#85CCAB"/>
<path d="M4.09891 6.71238C3.82519 6.90602 3.49902 7.01176 3.16376 7.01557H3.12776C2.8863 7.01557 2.68591 6.78431 2.68591 6.50172C2.68591 6.21914 2.8863 5.98795 3.12776 5.98795H3.16376C3.41034 5.98275 3.52341 5.90569 3.68787 5.79811C3.693 5.79297 3.69813 5.79297 3.70326 5.78784C3.75296 6.12505 3.88928 6.44361 4.09891 6.71238Z" fill="#63C397"/>
<path d="M19.2976 23.4939C18.7052 23.811 18.043 23.9754 17.371 23.9721H11.9345C11.0777 23.9679 10.243 23.6987 9.54526 23.2013L9.9203 22.1942C10.4795 22.6786 11.1947 22.9449 11.9345 22.9444H17.3708C18.0428 22.9452 18.6963 22.7249 19.2308 22.3175C19.2051 22.7109 19.2275 23.106 19.2976 23.4939Z" fill="#EF444E"/>
<path d="M20.13 21.2383C19.8735 21.7505 19.4796 22.1813 18.9923 22.4826C18.5051 22.7838 17.9436 22.9436 17.3708 22.9441H11.9345C11.3617 22.9434 10.8004 22.7834 10.3132 22.4822C9.82599 22.181 9.43205 21.7503 9.17534 21.2383C9.10265 21.0935 9.06816 20.9325 9.07517 20.7707C9.08218 20.6088 9.13044 20.4514 9.21537 20.3134C9.30031 20.1755 9.4191 20.0615 9.56047 19.9824C9.70183 19.9032 9.86108 19.8615 10.0231 19.8612L19.3849 19.8663C19.5372 19.8834 19.6832 19.9371 19.8103 20.0227C19.9375 20.1083 20.0421 20.2233 20.1152 20.358C20.1884 20.4927 20.2279 20.6431 20.2305 20.7963C20.233 20.9496 20.1986 21.1012 20.13 21.2383Z" fill="#7C737D"/>
<path d="M12.0835 19.8612H5.91768V14.3498C5.91768 14.3125 5.9325 14.2767 5.95887 14.2503C5.98524 14.224 6.02101 14.2091 6.05831 14.2091H11.9429C11.9802 14.2091 12.016 14.224 12.0423 14.2503C12.0687 14.2767 12.0835 14.3125 12.0835 14.3498V19.8612Z" fill="#E69B6C"/>
<path d="M12.0835 18.3196V19.8611H5.91769V15.2367C5.91849 14.9644 6.02701 14.7035 6.21956 14.511C6.4121 14.3184 6.67302 14.2099 6.94531 14.2091C6.94531 14.7489 7.05163 15.2834 7.25821 15.7821C7.46478 16.2809 7.76756 16.734 8.14926 17.1157C8.92014 17.8866 9.96567 18.3196 11.0559 18.3196H12.0835Z" fill="#E28044"/>
<path d="M25.4429 4.70337C25.4452 5.04836 25.4125 5.39269 25.3452 5.73106C25.1192 6.9128 24.4615 7.81231 23.3876 8.15114C23.0547 8.25312 22.7081 8.30337 22.36 8.30013V4.70337H25.4429Z" fill="#FCD7CA"/>
<path d="M32.1226 13.6953C32.1229 13.8978 32.0832 14.0983 32.0058 14.2855C31.9285 14.4726 31.8149 14.6427 31.6717 14.7858C31.5285 14.929 31.3585 15.0426 31.1714 15.1199C30.9842 15.1973 30.7837 15.237 30.5812 15.2367H29.0397C28.6309 15.2367 28.2388 15.0743 27.9497 14.7852C27.6606 14.4962 27.4982 14.1041 27.4982 13.6953C27.4982 13.2864 27.6606 12.8944 27.9497 12.6053C28.2388 12.3162 28.6309 12.1538 29.0397 12.1538H30.5812C30.9898 12.1545 31.3815 12.3171 31.6704 12.606C31.9593 12.8949 32.122 13.2866 32.1226 13.6953Z" fill="#2FD9E7"/>
<path d="M31.8965 14.4969C31.7604 14.7238 31.5675 14.9114 31.3369 15.0411C31.1062 15.1709 30.8458 15.2383 30.5811 15.2367H29.0397C28.7035 15.2369 28.3765 15.1271 28.1085 14.9241C27.8406 14.721 27.6464 14.4359 27.5556 14.1123C27.4648 13.7886 27.4823 13.4441 27.6055 13.1313C27.7288 12.8185 27.9509 12.5546 28.2381 12.3799C28.0953 12.6134 28.0174 12.8808 28.0123 13.1544C28.0072 13.4281 28.0752 13.6982 28.2092 13.9369C28.3432 14.1755 28.5383 14.3742 28.7746 14.5123C29.0109 14.6505 29.2797 14.7232 29.5534 14.7229H31.095C31.378 14.7237 31.6556 14.6454 31.8965 14.4969Z" fill="#0DCEDE"/>
<path d="M3.86239 18.8336H2.54122C2.47324 18.8344 2.40577 18.8217 2.34274 18.7962C2.2797 18.7707 2.22235 18.733 2.174 18.6852C2.12564 18.6374 2.08725 18.5805 2.06105 18.5178C2.03485 18.455 2.02136 18.3877 2.02136 18.3198C2.02136 18.2518 2.03485 18.1845 2.06105 18.1217C2.08725 18.059 2.12564 18.0021 2.174 17.9543C2.22235 17.9065 2.2797 17.8688 2.34274 17.8433C2.40577 17.8178 2.47324 17.8051 2.54122 17.8059H3.86239C3.93037 17.8051 3.99783 17.8178 4.06087 17.8433C4.1239 17.8688 4.18126 17.9065 4.22961 17.9543C4.27796 18.0021 4.31635 18.059 4.34255 18.1217C4.36875 18.1845 4.38224 18.2518 4.38224 18.3198C4.38224 18.3877 4.36875 18.455 4.34255 18.5178C4.31635 18.5805 4.27796 18.6374 4.22961 18.6852C4.18126 18.733 4.1239 18.7707 4.06087 18.7962C3.99783 18.8217 3.93037 18.8344 3.86239 18.8336Z" fill="#E69B6C"/>
<path d="M3.8624 16.7783H1.66036C1.59238 16.7791 1.52492 16.7664 1.46188 16.7409C1.39884 16.7154 1.34149 16.6777 1.29314 16.6299C1.24478 16.5821 1.20639 16.5252 1.18019 16.4625C1.15399 16.3997 1.1405 16.3324 1.1405 16.2645C1.1405 16.1965 1.15399 16.1292 1.18019 16.0664C1.20639 16.0037 1.24478 15.9468 1.29314 15.899C1.34149 15.8512 1.39884 15.8135 1.46188 15.788C1.52492 15.7626 1.59238 15.7499 1.66036 15.7506H3.8624C3.93038 15.7499 3.99785 15.7626 4.06088 15.788C4.12392 15.8135 4.18127 15.8512 4.22963 15.899C4.27798 15.9468 4.31637 16.0037 4.34257 16.0664C4.36877 16.1292 4.38226 16.1965 4.38226 16.2645C4.38226 16.3324 4.36877 16.3997 4.34257 16.4625C4.31637 16.5252 4.27798 16.5821 4.22963 16.6299C4.18127 16.6777 4.12392 16.7154 4.06088 16.7409C3.99785 16.7664 3.93038 16.7791 3.8624 16.7783Z" fill="#E69B6C"/>
<path d="M3.86239 14.723H0.779468C0.711487 14.7238 0.644025 14.7111 0.58099 14.6856C0.517954 14.6601 0.460599 14.6224 0.412246 14.5746C0.363893 14.5268 0.325504 14.4699 0.299304 14.4072C0.273104 14.3445 0.259613 14.2771 0.259613 14.2092C0.259613 14.1412 0.273104 14.0739 0.299304 14.0111C0.325504 13.9484 0.363893 13.8915 0.412246 13.8437C0.460599 13.7959 0.517954 13.7582 0.58099 13.7327C0.644025 13.7073 0.711487 13.6946 0.779468 13.6953H3.86239C3.93037 13.6946 3.99783 13.7073 4.06087 13.7327C4.1239 13.7582 4.18126 13.7959 4.22961 13.8437C4.27796 13.8915 4.31635 13.9484 4.34255 14.0111C4.36875 14.0739 4.38224 14.1412 4.38224 14.2092C4.38224 14.2771 4.36875 14.3445 4.34255 14.4072C4.31635 14.4699 4.27796 14.5268 4.22961 14.5746C4.18126 14.6224 4.1239 14.6601 4.06087 14.6856C3.99783 14.7111 3.93037 14.7238 3.86239 14.723Z" fill="#E69B6C"/>
<path d="M21.322 8.67016C21.6164 8.98137 21.8067 9.37641 21.8667 9.80057H21.8516C21.7725 9.80052 21.6936 9.79538 21.6152 9.78518C21.4225 9.75513 21.2319 9.71221 21.0449 9.65671C20.2566 9.43817 19.5369 9.02261 18.9536 8.44917C18.9279 8.4235 18.8974 8.39784 18.8714 8.36697C19.1797 8.10492 19.452 7.88885 19.6781 7.7196C20.1363 8.17114 20.7021 8.49831 21.322 8.67016Z" fill="#FECD55"/>
<path d="M25.4429 4.70337C25.4452 5.04836 25.4125 5.39269 25.3452 5.73106C24.826 5.73106 24.3281 5.93731 23.961 6.30444C23.5939 6.67157 23.3876 7.1695 23.3876 7.6887V8.15114C23.0547 8.25312 22.7081 8.30337 22.36 8.30013V4.70337H25.4429Z" fill="#FAC1AD"/>
<path d="M26.1982 4.70337H22.36V8.25619C22.3603 8.33005 22.3447 8.40311 22.3143 8.47041C22.2839 8.53771 22.2394 8.59769 22.1838 8.64628C22.1281 8.69486 22.0627 8.73091 21.9919 8.75199C21.9211 8.77306 21.8467 8.77867 21.7735 8.76842C21.6212 8.74462 21.4704 8.71175 21.322 8.66998C20.702 8.49818 20.1361 8.17101 19.6778 7.71943C19.2568 7.31482 18.9341 6.81904 18.7346 6.27021C18.5351 5.72137 18.4641 5.1341 18.5271 4.55354C18.6279 3.59439 19.085 2.708 19.808 2.06968C20.5309 1.43137 21.4671 1.08763 22.4314 1.10645C23.3956 1.12526 24.3177 1.50527 25.0152 2.1713C25.7127 2.83733 26.1349 3.74088 26.1982 4.70323V4.70337Z" fill="#F16069"/>
<path d="M22.3497 7.64252C22.3549 7.64252 22.3549 7.64252 22.36 7.64765V8.25395C22.3604 8.32783 22.3449 8.40092 22.3146 8.46828C22.2842 8.53565 22.2398 8.59572 22.1843 8.64443C22.1287 8.69315 22.0634 8.72937 21.9927 8.75066C21.9219 8.77194 21.8474 8.77779 21.7742 8.7678C21.6219 8.74317 21.471 8.71059 21.322 8.67021C20.702 8.4984 20.1361 8.17123 19.6779 7.71965C19.2661 7.32232 18.9485 6.83793 18.7482 6.30195C18.5479 5.76598 18.47 5.19199 18.5203 4.62202C18.5705 4.05205 18.7476 3.50054 19.0386 3.00787C19.3295 2.51519 19.727 2.09384 20.2019 1.77466C19.6903 2.52136 19.4601 3.42531 19.5524 4.32575C19.6446 5.22619 20.0532 6.06473 20.7055 6.69224C21.1638 7.14375 21.7297 7.47083 22.3497 7.64252Z" fill="#EF444E"/>
<path d="M16.7079 27.5685H12.5973V25.14C12.5973 25.1027 12.6121 25.067 12.6385 25.0406C12.6649 25.0142 12.7006 24.9994 12.7379 24.9994H16.5673C16.6046 24.9994 16.6404 25.0142 16.6667 25.0406C16.6931 25.067 16.7079 25.1027 16.7079 25.14V27.5685Z" fill="#2FD9E7"/>
<path d="M16.7079 27.0547V27.5685H12.5974V26.0271C12.5979 25.8294 12.6554 25.6361 12.7629 25.4703C12.8704 25.3044 13.0235 25.1731 13.2037 25.0919C13.1416 25.2236 13.11 25.3676 13.1112 25.5132C13.1112 25.9221 13.2736 26.3141 13.5626 26.6032C13.8517 26.8923 14.2438 27.0547 14.6526 27.0547H16.7079Z" fill="#0DCEDE"/>
<path d="M26.4705 5.21723H22.36C22.292 5.21802 22.2246 5.20532 22.1615 5.17986C22.0985 5.15439 22.0411 5.11667 21.9928 5.06888C21.9444 5.02109 21.906 4.96418 21.8798 4.90145C21.8536 4.83871 21.8401 4.7714 21.8401 4.70342C21.8401 4.63543 21.8536 4.56813 21.8798 4.50539C21.906 4.44266 21.9444 4.38575 21.9928 4.33796C22.0411 4.29017 22.0985 4.25245 22.1615 4.22698C22.2246 4.20152 22.292 4.18882 22.36 4.18961H26.4705C26.5385 4.18882 26.606 4.20152 26.669 4.22698C26.7321 4.25245 26.7894 4.29017 26.8378 4.33796C26.8861 4.38575 26.9245 4.44266 26.9507 4.50539C26.9769 4.56813 26.9904 4.63543 26.9904 4.70342C26.9904 4.7714 26.9769 4.83871 26.9507 4.90145C26.9245 4.96418 26.8861 5.02109 26.8378 5.06888C26.7894 5.11667 26.7321 5.15439 26.669 5.17986C26.606 5.20532 26.5385 5.21802 26.4705 5.21723Z" fill="#FFE589"/>
<path d="M12.0835 18.8335H5.40386C5.33588 18.8327 5.26841 18.8454 5.20538 18.8709C5.14234 18.8964 5.08499 18.9341 5.03664 18.9819C4.98828 19.0297 4.94989 19.0866 4.92369 19.1493C4.89749 19.212 4.884 19.2794 4.884 19.3473C4.884 19.4153 4.89749 19.4826 4.92369 19.5454C4.94989 19.6081 4.98828 19.665 5.03664 19.7128C5.08499 19.7606 5.14234 19.7983 5.20538 19.8238C5.26841 19.8492 5.33588 19.8619 5.40386 19.8611H12.0835V18.8335Z" fill="#2FD9E7"/>
<path d="M26.4705 5.21723H22.36C22.292 5.21802 22.2246 5.20532 22.1615 5.17986C22.0985 5.15439 22.0411 5.11667 21.9928 5.06888C21.9444 5.02109 21.906 4.96418 21.8798 4.90145C21.8536 4.83871 21.8401 4.7714 21.8401 4.70342C21.8401 4.63543 21.8536 4.56813 21.8798 4.50539C21.906 4.44266 21.9444 4.38575 21.9928 4.33796C22.0411 4.29017 22.0985 4.25245 22.1615 4.22698C22.2246 4.20152 22.292 4.18882 22.36 4.18961H26.4705C26.5385 4.18882 26.606 4.20152 26.669 4.22698C26.7321 4.25245 26.7894 4.29017 26.8378 4.33796C26.8861 4.38575 26.9245 4.44266 26.9507 4.50539C26.9769 4.56813 26.9904 4.63543 26.9904 4.70342C26.9904 4.7714 26.9769 4.83871 26.9507 4.90145C26.9245 4.96418 26.8861 5.02109 26.8378 5.06888C26.7894 5.11667 26.7321 5.15439 26.669 5.17986C26.606 5.20532 26.5385 5.21802 26.4705 5.21723Z" fill="#FFE589"/>
<path d="M8.78996 25.2203L8.02946 27.25C7.71744 27.2839 7.40441 27.1955 7.15625 27.0033C8.00408 26.993 8.46652 25.0919 8.46652 25.0919L8.78996 25.2203Z" fill="#FEC845"/>
</svg>
