<svg width="37" height="46" viewBox="0 0 37 46" fill="none" xmlns="http://www.w3.org/2000/svg">
<path d="M30.7523 24.6315C30.7015 18.9897 35.373 16.245 35.5866 16.1172C32.9409 12.2609 28.8402 11.734 27.3992 11.692C23.9551 11.3296 20.6143 13.7523 18.8598 13.7523C17.0704 13.7523 14.3687 11.727 11.4568 11.7865C7.70982 11.8443 4.20443 14.0131 2.28189 17.381C-1.68575 24.2482 1.27335 34.3397 5.07465 39.8905C6.97617 42.6107 9.19812 45.6443 12.1064 45.5375C14.9517 45.422 16.0146 43.7258 19.4482 43.7258C22.8502 43.7258 23.8483 45.5375 26.8144 45.4693C29.868 45.422 31.7906 42.7385 33.6256 39.9955C35.823 36.8814 36.7055 33.8111 36.7405 33.6535C36.6704 33.629 30.8118 31.3919 30.7523 24.6315ZM25.1492 8.04047C26.6796 6.12719 27.7266 3.52423 27.436 0.882751C25.221 0.980778 22.451 2.41442 20.8559 4.28569C19.4447 5.93464 18.184 8.63738 18.5096 11.1791C20.9977 11.3646 23.5524 9.92399 25.1492 8.04047Z" fill="white"/>
</svg>
