<svg width="327" height="151" viewBox="0 0 327 151" fill="none" xmlns="http://www.w3.org/2000/svg">
<g filter="url(#filter0_bd_0_163)">
<rect width="269" height="89" rx="8.88889" transform="matrix(1 0 0 -1 29 116)" fill="white" fill-opacity="0.7" shape-rendering="crispEdges"/>
</g>
<path opacity="0.8" d="M121.384 54.16C120.595 54.16 119.859 54.016 119.176 53.728C118.493 53.4293 117.896 53.0187 117.384 52.496C116.872 51.9627 116.472 51.3493 116.184 50.656C115.896 49.9627 115.752 49.2213 115.752 48.432C115.752 47.632 115.896 46.8907 116.184 46.208C116.472 45.5147 116.867 44.9067 117.368 44.384C117.88 43.8613 118.472 43.456 119.144 43.168C119.827 42.88 120.563 42.736 121.352 42.736C122.141 42.736 122.872 42.88 123.544 43.168C124.227 43.456 124.824 43.8613 125.336 44.384C125.848 44.9067 126.243 45.5147 126.52 46.208C126.808 46.9013 126.952 47.648 126.952 48.448C126.952 49.2373 126.808 49.9787 126.52 50.672C126.243 51.3653 125.848 51.9733 125.336 52.496C124.835 53.0187 124.243 53.4293 123.56 53.728C122.888 54.016 122.163 54.16 121.384 54.16ZM121.352 52.72C122.141 52.72 122.84 52.5387 123.448 52.176C124.056 51.8027 124.531 51.296 124.872 50.656C125.224 50.0053 125.4 49.264 125.4 48.432C125.4 47.8133 125.299 47.248 125.096 46.736C124.904 46.2133 124.627 45.76 124.264 45.376C123.901 44.992 123.475 44.6987 122.984 44.496C122.493 44.2827 121.949 44.176 121.352 44.176C120.563 44.176 119.864 44.3573 119.256 44.72C118.648 45.0827 118.168 45.584 117.816 46.224C117.475 46.864 117.304 47.6 117.304 48.432C117.304 49.0507 117.405 49.6267 117.608 50.16C117.811 50.6827 118.088 51.136 118.44 51.52C118.803 51.8933 119.229 52.1867 119.72 52.4C120.221 52.6133 120.765 52.72 121.352 52.72ZM126.696 54.784L121.496 49.584L122.472 48.608L127.656 53.808L126.696 54.784ZM132.19 54.16C131.571 54.16 131.011 54.0213 130.51 53.744C130.019 53.456 129.635 53.0613 129.358 52.56C129.081 52.0587 128.942 51.4773 128.942 50.816V46.4H130.382V50.752C130.382 51.168 130.451 51.5307 130.59 51.84C130.739 52.1387 130.953 52.368 131.23 52.528C131.507 52.688 131.833 52.768 132.206 52.768C132.771 52.768 133.214 52.592 133.534 52.24C133.854 51.8773 134.014 51.3813 134.014 50.752V46.4H135.454V50.816C135.454 51.4773 135.315 52.0587 135.038 52.56C134.761 53.0613 134.377 53.456 133.886 53.744C133.406 54.0213 132.841 54.16 132.19 54.16ZM140.616 54.16C139.923 54.16 139.293 53.9893 138.728 53.648C138.163 53.296 137.715 52.8213 137.384 52.224C137.064 51.6267 136.904 50.9547 136.904 50.208C136.904 49.4613 137.064 48.7893 137.384 48.192C137.715 47.5947 138.157 47.12 138.712 46.768C139.277 46.416 139.912 46.24 140.616 46.24C141.192 46.24 141.704 46.3627 142.152 46.608C142.611 46.8427 142.979 47.1733 143.256 47.6C143.533 48.016 143.688 48.5013 143.72 49.056V51.344C143.688 51.888 143.533 52.3733 143.256 52.8C142.989 53.2267 142.627 53.5627 142.168 53.808C141.72 54.0427 141.203 54.16 140.616 54.16ZM140.856 52.8C141.571 52.8 142.147 52.56 142.584 52.08C143.021 51.5893 143.24 50.9653 143.24 50.208C143.24 49.6853 143.139 49.232 142.936 48.848C142.744 48.4533 142.467 48.1493 142.104 47.936C141.741 47.712 141.32 47.6 140.84 47.6C140.36 47.6 139.933 47.712 139.56 47.936C139.197 48.16 138.909 48.4693 138.696 48.864C138.493 49.248 138.392 49.6907 138.392 50.192C138.392 50.704 138.493 51.1573 138.696 51.552C138.909 51.936 139.203 52.24 139.576 52.464C139.949 52.688 140.376 52.8 140.856 52.8ZM143.144 54V51.952L143.416 50.096L143.144 48.256V46.4H144.6V54H143.144ZM146.697 54V46.4H148.137V54H146.697ZM148.137 49.664L147.593 49.424C147.593 48.4533 147.817 47.68 148.265 47.104C148.713 46.528 149.358 46.24 150.201 46.24C150.585 46.24 150.931 46.3093 151.241 46.448C151.55 46.576 151.838 46.7947 152.105 47.104L151.161 48.08C151.001 47.9093 150.825 47.7867 150.633 47.712C150.441 47.6373 150.217 47.6 149.961 47.6C149.427 47.6 148.99 47.7707 148.649 48.112C148.307 48.4533 148.137 48.9707 148.137 49.664ZM154.255 54V43.216H155.695V54H154.255ZM152.383 47.712V46.4H157.567V47.712H152.383ZM162.264 54.16C161.506 54.16 160.824 53.9893 160.216 53.648C159.608 53.296 159.128 52.8213 158.776 52.224C158.424 51.6267 158.248 50.9493 158.248 50.192C158.248 49.4453 158.418 48.7733 158.76 48.176C159.112 47.5787 159.581 47.1093 160.168 46.768C160.765 46.416 161.432 46.24 162.168 46.24C162.872 46.24 163.49 46.4 164.024 46.72C164.568 47.04 164.989 47.4827 165.288 48.048C165.597 48.6133 165.752 49.2533 165.752 49.968C165.752 50.0747 165.746 50.192 165.736 50.32C165.725 50.4373 165.704 50.576 165.672 50.736H159.256V49.536H164.904L164.376 50C164.376 49.488 164.285 49.056 164.104 48.704C163.922 48.3413 163.666 48.064 163.336 47.872C163.005 47.6693 162.605 47.568 162.136 47.568C161.645 47.568 161.213 47.6747 160.84 47.888C160.466 48.1013 160.178 48.4 159.976 48.784C159.773 49.168 159.672 49.6213 159.672 50.144C159.672 50.6773 159.778 51.1467 159.992 51.552C160.205 51.9467 160.509 52.256 160.904 52.48C161.298 52.6933 161.752 52.8 162.264 52.8C162.69 52.8 163.08 52.7253 163.432 52.576C163.794 52.4267 164.104 52.2027 164.36 51.904L165.288 52.848C164.925 53.2747 164.477 53.6 163.944 53.824C163.421 54.048 162.861 54.16 162.264 54.16ZM167.322 54V46.4H168.762V54H167.322ZM168.762 49.664L168.218 49.424C168.218 48.4533 168.442 47.68 168.89 47.104C169.338 46.528 169.983 46.24 170.826 46.24C171.21 46.24 171.556 46.3093 171.866 46.448C172.175 46.576 172.463 46.7947 172.73 47.104L171.786 48.08C171.626 47.9093 171.45 47.7867 171.258 47.712C171.066 47.6373 170.842 47.6 170.586 47.6C170.052 47.6 169.615 47.7707 169.274 48.112C168.932 48.4533 168.762 48.9707 168.762 49.664ZM178.617 49.68V48.368H181.641C182.057 48.368 182.425 48.2827 182.745 48.112C183.076 47.9413 183.332 47.7013 183.513 47.392C183.705 47.0827 183.801 46.7147 183.801 46.288C183.801 45.8613 183.705 45.4933 183.513 45.184C183.332 44.8747 183.076 44.6347 182.745 44.464C182.425 44.2933 182.057 44.208 181.641 44.208H178.617V42.896H181.737C182.42 42.896 183.028 43.0347 183.561 43.312C184.105 43.5893 184.532 43.984 184.841 44.496C185.161 44.9973 185.321 45.5947 185.321 46.288C185.321 46.9707 185.161 47.568 184.841 48.08C184.532 48.5813 184.105 48.976 183.561 49.264C183.028 49.5413 182.42 49.68 181.737 49.68H178.617ZM177.609 54V42.896H179.113V54H177.609ZM190.091 54.16C189.344 54.16 188.672 53.984 188.075 53.632C187.477 53.28 187.003 52.8053 186.651 52.208C186.299 51.6 186.123 50.9227 186.123 50.176C186.123 49.44 186.299 48.7787 186.651 48.192C187.003 47.5947 187.477 47.12 188.075 46.768C188.672 46.416 189.344 46.24 190.091 46.24C190.827 46.24 191.493 46.416 192.091 46.768C192.699 47.1093 193.179 47.5787 193.531 48.176C193.883 48.7733 194.059 49.44 194.059 50.176C194.059 50.9227 193.883 51.6 193.531 52.208C193.179 52.8053 192.699 53.28 192.091 53.632C191.493 53.984 190.827 54.16 190.091 54.16ZM190.091 52.768C190.571 52.768 190.997 52.656 191.371 52.432C191.744 52.208 192.037 51.904 192.251 51.52C192.464 51.1253 192.571 50.6773 192.571 50.176C192.571 49.6853 192.459 49.248 192.235 48.864C192.021 48.48 191.728 48.1813 191.355 47.968C190.992 47.744 190.571 47.632 190.091 47.632C189.611 47.632 189.184 47.744 188.811 47.968C188.437 48.1813 188.144 48.48 187.931 48.864C187.717 49.248 187.611 49.6853 187.611 50.176C187.611 50.6773 187.717 51.1253 187.931 51.52C188.144 51.904 188.437 52.208 188.811 52.432C189.184 52.656 189.611 52.768 190.091 52.768ZM198.737 54.16C198.118 54.16 197.558 54.0213 197.057 53.744C196.566 53.456 196.182 53.0613 195.905 52.56C195.628 52.0587 195.489 51.4773 195.489 50.816V46.4H196.929V50.752C196.929 51.168 196.998 51.5307 197.137 51.84C197.286 52.1387 197.5 52.368 197.777 52.528C198.054 52.688 198.38 52.768 198.753 52.768C199.318 52.768 199.761 52.592 200.081 52.24C200.401 51.8773 200.561 51.3813 200.561 50.752V46.4H202.001V50.816C202.001 51.4773 201.862 52.0587 201.585 52.56C201.308 53.0613 200.924 53.456 200.433 53.744C199.953 54.0213 199.388 54.16 198.737 54.16ZM209.307 54V49.568C209.307 48.992 209.126 48.5173 208.763 48.144C208.4 47.7707 207.931 47.584 207.355 47.584C206.971 47.584 206.63 47.6693 206.331 47.84C206.032 48.0107 205.798 48.2453 205.627 48.544C205.456 48.8427 205.371 49.184 205.371 49.568L204.779 49.232C204.779 48.656 204.907 48.144 205.163 47.696C205.419 47.248 205.776 46.896 206.235 46.64C206.694 46.3733 207.211 46.24 207.787 46.24C208.363 46.24 208.87 46.384 209.307 46.672C209.755 46.96 210.107 47.3387 210.363 47.808C210.619 48.2667 210.747 48.7573 210.747 49.28V54H209.307ZM203.931 54V46.4H205.371V54H203.931ZM215.913 54.16C215.209 54.16 214.579 53.9893 214.025 53.648C213.47 53.296 213.027 52.8213 212.697 52.224C212.377 51.6267 212.217 50.9547 212.217 50.208C212.217 49.4613 212.377 48.7893 212.697 48.192C213.027 47.5947 213.47 47.12 214.025 46.768C214.579 46.416 215.209 46.24 215.913 46.24C216.478 46.24 216.99 46.3627 217.449 46.608C217.907 46.8427 218.275 47.1733 218.553 47.6C218.841 48.016 219.001 48.5013 219.033 49.056V51.344C219.001 51.888 218.846 52.3733 218.569 52.8C218.291 53.2267 217.923 53.5627 217.465 53.808C217.006 54.0427 216.489 54.16 215.913 54.16ZM216.153 52.8C216.633 52.8 217.049 52.688 217.401 52.464C217.763 52.24 218.046 51.936 218.249 51.552C218.451 51.1573 218.553 50.7093 218.553 50.208C218.553 49.6853 218.446 49.232 218.233 48.848C218.03 48.464 217.747 48.16 217.385 47.936C217.033 47.712 216.617 47.6 216.137 47.6C215.657 47.6 215.235 47.712 214.873 47.936C214.51 48.16 214.222 48.4693 214.009 48.864C213.806 49.248 213.705 49.6907 213.705 50.192C213.705 50.704 213.806 51.1573 214.009 51.552C214.222 51.936 214.51 52.24 214.873 52.464C215.246 52.688 215.673 52.8 216.153 52.8ZM219.913 54H218.457V51.952L218.729 50.096L218.457 48.256V42.576H219.913V54ZM225.529 54.16C224.772 54.16 224.089 53.9893 223.481 53.648C222.873 53.296 222.393 52.8213 222.041 52.224C221.689 51.6267 221.513 50.9493 221.513 50.192C221.513 49.4453 221.684 48.7733 222.025 48.176C222.377 47.5787 222.846 47.1093 223.433 46.768C224.03 46.416 224.697 46.24 225.433 46.24C226.137 46.24 226.756 46.4 227.289 46.72C227.833 47.04 228.254 47.4827 228.553 48.048C228.862 48.6133 229.017 49.2533 229.017 49.968C229.017 50.0747 229.012 50.192 229.001 50.32C228.99 50.4373 228.969 50.576 228.937 50.736H222.521V49.536H228.169L227.641 50C227.641 49.488 227.55 49.056 227.369 48.704C227.188 48.3413 226.932 48.064 226.601 47.872C226.27 47.6693 225.87 47.568 225.401 47.568C224.91 47.568 224.478 47.6747 224.105 47.888C223.732 48.1013 223.444 48.4 223.241 48.784C223.038 49.168 222.937 49.6213 222.937 50.144C222.937 50.6773 223.044 51.1467 223.257 51.552C223.47 51.9467 223.774 52.256 224.169 52.48C224.564 52.6933 225.017 52.8 225.529 52.8C225.956 52.8 226.345 52.7253 226.697 52.576C227.06 52.4267 227.369 52.2027 227.625 51.904L228.553 52.848C228.19 53.2747 227.742 53.6 227.209 53.824C226.686 54.048 226.126 54.16 225.529 54.16ZM230.587 54V46.4H232.027V54H230.587ZM232.027 49.664L231.483 49.424C231.483 48.4533 231.707 47.68 232.155 47.104C232.603 46.528 233.249 46.24 234.091 46.24C234.475 46.24 234.822 46.3093 235.131 46.448C235.441 46.576 235.729 46.7947 235.995 47.104L235.051 48.08C234.891 47.9093 234.715 47.7867 234.523 47.712C234.331 47.6373 234.107 47.6 233.851 47.6C233.318 47.6 232.881 47.7707 232.539 48.112C232.198 48.4533 232.027 48.9707 232.027 49.664ZM242.795 54L239.787 46.4H241.291L243.467 52.32H242.987L245.147 46.4H245.979L248.139 52.32H247.659L249.835 46.4H251.339L248.347 54H247.499L245.307 48.256H245.835L243.627 54H242.795ZM252.51 54V46.4H253.95V54H252.51ZM253.23 44.88C252.963 44.88 252.744 44.7947 252.574 44.624C252.403 44.4427 252.318 44.2187 252.318 43.952C252.318 43.696 252.403 43.4827 252.574 43.312C252.744 43.1307 252.963 43.04 253.23 43.04C253.496 43.04 253.715 43.1307 253.886 43.312C254.056 43.4827 254.142 43.696 254.142 43.952C254.142 44.2187 254.056 44.4427 253.886 44.624C253.715 44.7947 253.496 44.88 253.23 44.88ZM257.24 54V43.216H258.68V54H257.24ZM255.368 47.712V46.4H260.552V47.712H255.368ZM267.338 54V49.568C267.338 48.992 267.157 48.5173 266.794 48.144C266.432 47.7707 265.962 47.584 265.386 47.584C265.002 47.584 264.661 47.6693 264.362 47.84C264.064 48.0107 263.829 48.2453 263.658 48.544C263.488 48.8427 263.402 49.184 263.402 49.568L262.81 49.232C262.81 48.656 262.938 48.144 263.194 47.696C263.45 47.248 263.808 46.896 264.266 46.64C264.725 46.3733 265.242 46.24 265.818 46.24C266.394 46.24 266.901 46.368 267.338 46.624C267.786 46.88 268.138 47.2373 268.394 47.696C268.65 48.1547 268.778 48.6827 268.778 49.28V54H267.338ZM261.962 54V42.576H263.402V54H261.962ZM121.352 76.16C120.552 76.16 119.811 76.016 119.128 75.728C118.445 75.4293 117.848 75.0187 117.336 74.496C116.835 73.9733 116.445 73.3653 116.168 72.672C115.891 71.9787 115.752 71.2373 115.752 70.448C115.752 69.648 115.891 68.9013 116.168 68.208C116.445 67.5147 116.835 66.912 117.336 66.4C117.848 65.8773 118.44 65.472 119.112 65.184C119.795 64.8853 120.536 64.736 121.336 64.736C122.211 64.736 122.979 64.8853 123.64 65.184C124.301 65.4827 124.888 65.888 125.4 66.4L124.36 67.44C124.008 67.0453 123.576 66.736 123.064 66.512C122.563 66.288 121.987 66.176 121.336 66.176C120.749 66.176 120.211 66.2827 119.72 66.496C119.229 66.6987 118.803 66.992 118.44 67.376C118.077 67.76 117.795 68.2133 117.592 68.736C117.4 69.2587 117.304 69.8293 117.304 70.448C117.304 71.0667 117.4 71.6373 117.592 72.16C117.795 72.6827 118.077 73.136 118.44 73.52C118.803 73.904 119.229 74.2027 119.72 74.416C120.211 74.6187 120.749 74.72 121.336 74.72C122.029 74.72 122.632 74.608 123.144 74.384C123.656 74.1493 124.088 73.8347 124.44 73.44L125.48 74.464C124.968 74.9973 124.365 75.4133 123.672 75.712C122.989 76.0107 122.216 76.16 121.352 76.16ZM132.448 76V71.568C132.448 70.992 132.266 70.5173 131.904 70.144C131.541 69.7707 131.072 69.584 130.496 69.584C130.112 69.584 129.77 69.6693 129.472 69.84C129.173 70.0107 128.938 70.2453 128.768 70.544C128.597 70.8427 128.512 71.184 128.512 71.568L127.92 71.232C127.92 70.656 128.048 70.144 128.304 69.696C128.56 69.248 128.917 68.896 129.376 68.64C129.834 68.3733 130.352 68.24 130.928 68.24C131.504 68.24 132.01 68.368 132.448 68.624C132.896 68.88 133.248 69.2373 133.504 69.696C133.76 70.1547 133.888 70.6827 133.888 71.28V76H132.448ZM127.072 76V64.576H128.512V76H127.072ZM139.357 76.16C138.6 76.16 137.917 75.9893 137.309 75.648C136.701 75.296 136.221 74.8213 135.869 74.224C135.517 73.6267 135.341 72.9493 135.341 72.192C135.341 71.4453 135.512 70.7733 135.853 70.176C136.205 69.5787 136.675 69.1093 137.261 68.768C137.859 68.416 138.525 68.24 139.261 68.24C139.965 68.24 140.584 68.4 141.117 68.72C141.661 69.04 142.083 69.4827 142.381 70.048C142.691 70.6133 142.845 71.2533 142.845 71.968C142.845 72.0747 142.84 72.192 142.829 72.32C142.819 72.4373 142.797 72.576 142.765 72.736H136.349V71.536H141.997L141.469 72C141.469 71.488 141.379 71.056 141.197 70.704C141.016 70.3413 140.76 70.064 140.429 69.872C140.099 69.6693 139.699 69.568 139.229 69.568C138.739 69.568 138.307 69.6747 137.933 69.888C137.56 70.1013 137.272 70.4 137.069 70.784C136.867 71.168 136.765 71.6213 136.765 72.144C136.765 72.6773 136.872 73.1467 137.085 73.552C137.299 73.9467 137.603 74.256 137.997 74.48C138.392 74.6933 138.845 74.8 139.357 74.8C139.784 74.8 140.173 74.7253 140.525 74.576C140.888 74.4267 141.197 74.2027 141.453 73.904L142.381 74.848C142.019 75.2747 141.571 75.6 141.037 75.824C140.515 76.048 139.955 76.16 139.357 76.16ZM147.935 76.16C147.178 76.16 146.495 75.9893 145.887 75.648C145.279 75.296 144.799 74.8213 144.447 74.224C144.095 73.6267 143.919 72.9493 143.919 72.192C143.919 71.4453 144.09 70.7733 144.431 70.176C144.783 69.5787 145.253 69.1093 145.839 68.768C146.437 68.416 147.103 68.24 147.839 68.24C148.543 68.24 149.162 68.4 149.695 68.72C150.239 69.04 150.661 69.4827 150.959 70.048C151.269 70.6133 151.423 71.2533 151.423 71.968C151.423 72.0747 151.418 72.192 151.407 72.32C151.397 72.4373 151.375 72.576 151.343 72.736H144.927V71.536H150.575L150.047 72C150.047 71.488 149.957 71.056 149.775 70.704C149.594 70.3413 149.338 70.064 149.007 69.872C148.677 69.6693 148.277 69.568 147.807 69.568C147.317 69.568 146.885 69.6747 146.511 69.888C146.138 70.1013 145.85 70.4 145.647 70.784C145.445 71.168 145.343 71.6213 145.343 72.144C145.343 72.6773 145.45 73.1467 145.663 73.552C145.877 73.9467 146.181 74.256 146.575 74.48C146.97 74.6933 147.423 74.8 147.935 74.8C148.362 74.8 148.751 74.7253 149.103 74.576C149.466 74.4267 149.775 74.2027 150.031 73.904L150.959 74.848C150.597 75.2747 150.149 75.6 149.615 75.824C149.093 76.048 148.533 76.16 147.935 76.16ZM155.41 76.16C154.983 76.16 154.578 76.1067 154.194 76C153.82 75.8827 153.474 75.7227 153.154 75.52C152.834 75.3067 152.556 75.056 152.322 74.768L153.25 73.84C153.527 74.1813 153.847 74.4373 154.21 74.608C154.572 74.768 154.978 74.848 155.426 74.848C155.874 74.848 156.22 74.7733 156.466 74.624C156.711 74.464 156.834 74.2453 156.834 73.968C156.834 73.6907 156.732 73.4773 156.53 73.328C156.338 73.168 156.087 73.04 155.778 72.944C155.468 72.8373 155.138 72.736 154.786 72.64C154.444 72.5333 154.119 72.4 153.81 72.24C153.5 72.08 153.244 71.8613 153.042 71.584C152.85 71.3067 152.754 70.9387 152.754 70.48C152.754 70.0213 152.866 69.6267 153.09 69.296C153.314 68.9547 153.623 68.6933 154.018 68.512C154.423 68.3307 154.908 68.24 155.474 68.24C156.071 68.24 156.599 68.3467 157.058 68.56C157.527 68.7627 157.911 69.072 158.21 69.488L157.282 70.416C157.068 70.1387 156.802 69.9253 156.482 69.776C156.172 69.6267 155.82 69.552 155.426 69.552C155.01 69.552 154.69 69.6267 154.466 69.776C154.252 69.9147 154.146 70.112 154.146 70.368C154.146 70.624 154.242 70.8213 154.434 70.96C154.626 71.0987 154.876 71.216 155.186 71.312C155.506 71.408 155.836 71.5093 156.178 71.616C156.519 71.712 156.844 71.8453 157.154 72.016C157.463 72.1867 157.714 72.416 157.906 72.704C158.108 72.992 158.21 73.3707 158.21 73.84C158.21 74.5547 157.954 75.12 157.442 75.536C156.94 75.952 156.263 76.16 155.41 76.16ZM163.342 76.16C162.584 76.16 161.902 75.9893 161.294 75.648C160.686 75.296 160.206 74.8213 159.854 74.224C159.502 73.6267 159.326 72.9493 159.326 72.192C159.326 71.4453 159.496 70.7733 159.838 70.176C160.19 69.5787 160.659 69.1093 161.246 68.768C161.843 68.416 162.51 68.24 163.246 68.24C163.95 68.24 164.568 68.4 165.102 68.72C165.646 69.04 166.067 69.4827 166.366 70.048C166.675 70.6133 166.83 71.2533 166.83 71.968C166.83 72.0747 166.824 72.192 166.814 72.32C166.803 72.4373 166.782 72.576 166.75 72.736H160.334V71.536H165.982L165.454 72C165.454 71.488 165.363 71.056 165.182 70.704C165 70.3413 164.744 70.064 164.414 69.872C164.083 69.6693 163.683 69.568 163.214 69.568C162.723 69.568 162.291 69.6747 161.918 69.888C161.544 70.1013 161.256 70.4 161.054 70.784C160.851 71.168 160.75 71.6213 160.75 72.144C160.75 72.6773 160.856 73.1467 161.07 73.552C161.283 73.9467 161.587 74.256 161.982 74.48C162.376 74.6933 162.83 74.8 163.342 74.8C163.768 74.8 164.158 74.7253 164.51 74.576C164.872 74.4267 165.182 74.2027 165.438 73.904L166.366 74.848C166.003 75.2747 165.555 75.6 165.022 75.824C164.499 76.048 163.939 76.16 163.342 76.16Z" fill="#241415"/>
<path d="M126.442 88.925L127.908 91.8583C128.108 92.2667 128.642 92.6583 129.092 92.7333L131.75 93.175C133.45 93.4583 133.85 94.6917 132.625 95.9083L130.558 97.975C130.208 98.325 130.017 99 130.125 99.4833L130.717 102.042C131.183 104.067 130.108 104.85 128.317 103.792L125.825 102.317C125.375 102.05 124.633 102.05 124.175 102.317L121.683 103.792C119.9 104.85 118.817 104.058 119.283 102.042L119.875 99.4833C119.983 99 119.792 98.325 119.442 97.975L117.375 95.9083C116.158 94.6917 116.55 93.4583 118.25 93.175L120.908 92.7333C121.35 92.6583 121.883 92.2667 122.083 91.8583L123.55 88.925C124.35 87.3333 125.65 87.3333 126.442 88.925Z" fill="#FFC560"/>
<path d="M146.442 88.925L147.908 91.8583C148.108 92.2667 148.642 92.6583 149.092 92.7333L151.75 93.175C153.45 93.4583 153.85 94.6917 152.625 95.9083L150.558 97.975C150.208 98.325 150.017 99 150.125 99.4833L150.717 102.042C151.183 104.067 150.108 104.85 148.317 103.792L145.825 102.317C145.375 102.05 144.633 102.05 144.175 102.317L141.683 103.792C139.9 104.85 138.817 104.058 139.283 102.042L139.875 99.4833C139.983 99 139.792 98.325 139.442 97.975L137.375 95.9083C136.158 94.6917 136.55 93.4583 138.25 93.175L140.908 92.7333C141.35 92.6583 141.883 92.2667 142.083 91.8583L143.55 88.925C144.35 87.3333 145.65 87.3333 146.442 88.925Z" fill="#FFC560"/>
<path d="M166.442 88.925L167.908 91.8583C168.108 92.2667 168.642 92.6583 169.092 92.7333L171.75 93.175C173.45 93.4583 173.85 94.6917 172.625 95.9083L170.558 97.975C170.208 98.325 170.017 99 170.125 99.4833L170.717 102.042C171.183 104.067 170.108 104.85 168.317 103.792L165.825 102.317C165.375 102.05 164.633 102.05 164.175 102.317L161.683 103.792C159.9 104.85 158.817 104.058 159.283 102.042L159.875 99.4833C159.983 99 159.792 98.325 159.442 97.975L157.375 95.9083C156.158 94.6917 156.55 93.4583 158.25 93.175L160.908 92.7333C161.35 92.6583 161.883 92.2667 162.083 91.8583L163.55 88.925C164.35 87.3333 165.65 87.3333 166.442 88.925Z" fill="#FFC560"/>
<path d="M186.442 88.925L187.908 91.8583C188.108 92.2667 188.642 92.6583 189.092 92.7333L191.75 93.175C193.45 93.4583 193.85 94.6917 192.625 95.9083L190.558 97.975C190.208 98.325 190.017 99 190.125 99.4833L190.717 102.042C191.183 104.067 190.108 104.85 188.317 103.792L185.825 102.317C185.375 102.05 184.633 102.05 184.175 102.317L181.683 103.792C179.9 104.85 178.817 104.058 179.283 102.042L179.875 99.4833C179.983 99 179.792 98.325 179.442 97.975L177.375 95.9083C176.158 94.6917 176.55 93.4583 178.25 93.175L180.908 92.7333C181.35 92.6583 181.883 92.2667 182.083 91.8583L183.55 88.925C184.35 87.3333 185.65 87.3333 186.442 88.925Z" fill="#FFC560"/>
<path d="M206.442 88.925L207.908 91.8583C208.108 92.2667 208.642 92.6583 209.092 92.7333L211.75 93.175C213.45 93.4583 213.85 94.6917 212.625 95.9083L210.558 97.975C210.208 98.325 210.017 99 210.125 99.4833L210.717 102.042C211.183 104.067 210.108 104.85 208.317 103.792L205.825 102.317C205.375 102.05 204.633 102.05 204.175 102.317L201.683 103.792C199.9 104.85 198.817 104.058 199.283 102.042L199.875 99.4833C199.983 99 199.792 98.325 199.442 97.975L197.375 95.9083C196.158 94.6917 196.55 93.4583 198.25 93.175L200.908 92.7333C201.35 92.6583 201.883 92.2667 202.083 91.8583L203.55 88.925C204.35 87.3333 205.65 87.3333 206.442 88.925Z" fill="#F1F1F1"/>
<g filter="url(#filter1_bd_0_163)">
<rect width="285" height="109" rx="8.88889" transform="matrix(-1 0 0 1 306 17)" stroke="white" stroke-opacity="0.7" shape-rendering="crispEdges"/>
</g>
<rect x="35" y="30" width="80" height="80"/>
<mask id="mask0_0_163" style="mask-type:alpha" maskUnits="userSpaceOnUse" x="35" y="30" width="80" height="80">
<rect x="35" y="30" width="80" height="80"/>
</mask>
<g mask="url(#mask0_0_163)">
<g style="mix-blend-mode:color">
<rect width="80" height="80" transform="translate(35 30)" fill="url(#paint0_linear_0_163)"/>
</g>
</g>
<mask id="mask1_0_163" style="mask-type:alpha" maskUnits="userSpaceOnUse" x="35" y="30" width="80" height="80">
<rect x="35" y="30" width="80" height="80"/>
</mask>
<g mask="url(#mask1_0_163)">
<g style="mix-blend-mode:color">
<rect width="80" height="80" transform="translate(35 30)" fill="#F5AE69"/>
</g>
</g>
<mask id="mask2_0_163" style="mask-type:alpha" maskUnits="userSpaceOnUse" x="35" y="30" width="80" height="80">
<rect x="35" y="30" width="80" height="80"/>
</mask>
<g mask="url(#mask2_0_163)">
<g style="mix-blend-mode:color">
<rect width="80" height="80" transform="translate(35 30)" fill="#4FD453"/>
</g>
</g>
<mask id="mask3_0_163" style="mask-type:alpha" maskUnits="userSpaceOnUse" x="35" y="30" width="80" height="80">
<rect x="35" y="30" width="80" height="80"/>
</mask>
<g mask="url(#mask3_0_163)">
<g style="mix-blend-mode:color">
<rect width="80" height="80" transform="translate(35 30)" fill="#FD3D40"/>
</g>
</g>
<mask id="mask4_0_163" style="mask-type:alpha" maskUnits="userSpaceOnUse" x="35" y="30" width="80" height="80">
<rect x="35" y="30" width="80" height="80"/>
</mask>
<g mask="url(#mask4_0_163)">
<g style="mix-blend-mode:color">
<rect width="80" height="80" transform="translate(35 30)" fill="white"/>
</g>
</g>
<mask id="mask5_0_163" style="mask-type:alpha" maskUnits="userSpaceOnUse" x="35" y="30" width="80" height="80">
<rect x="35" y="30" width="80" height="80"/>
</mask>
<g mask="url(#mask5_0_163)">
<g style="mix-blend-mode:color">
<rect width="80" height="80" transform="translate(35 30)" fill="#E7C648"/>
</g>
</g>
<defs>
<filter id="filter0_bd_0_163" x="9" y="11" width="309" height="129" filterUnits="userSpaceOnUse" color-interpolation-filters="sRGB">
<feFlood flood-opacity="0" result="BackgroundImageFix"/>
<feGaussianBlur in="BackgroundImageFix" stdDeviation="5.5"/>
<feComposite in2="SourceAlpha" operator="in" result="effect1_backgroundBlur_0_163"/>
<feColorMatrix in="SourceAlpha" type="matrix" values="0 0 0 0 0 0 0 0 0 0 0 0 0 0 0 0 0 0 127 0" result="hardAlpha"/>
<feOffset dy="4"/>
<feGaussianBlur stdDeviation="10"/>
<feComposite in2="hardAlpha" operator="out"/>
<feColorMatrix type="matrix" values="0 0 0 0 0 0 0 0 0 0 0 0 0 0 0 0 0 0 0.03 0"/>
<feBlend mode="normal" in2="effect1_backgroundBlur_0_163" result="effect2_dropShadow_0_163"/>
<feBlend mode="normal" in="SourceGraphic" in2="effect2_dropShadow_0_163" result="shape"/>
</filter>
<filter id="filter1_bd_0_163" x="0.5" y="0.5" width="326" height="150" filterUnits="userSpaceOnUse" color-interpolation-filters="sRGB">
<feFlood flood-opacity="0" result="BackgroundImageFix"/>
<feGaussianBlur in="BackgroundImageFix" stdDeviation="5.5"/>
<feComposite in2="SourceAlpha" operator="in" result="effect1_backgroundBlur_0_163"/>
<feColorMatrix in="SourceAlpha" type="matrix" values="0 0 0 0 0 0 0 0 0 0 0 0 0 0 0 0 0 0 127 0" result="hardAlpha"/>
<feOffset dy="4"/>
<feGaussianBlur stdDeviation="10"/>
<feComposite in2="hardAlpha" operator="out"/>
<feColorMatrix type="matrix" values="0 0 0 0 0 0 0 0 0 0 0 0 0 0 0 0 0 0 0.03 0"/>
<feBlend mode="normal" in2="effect1_backgroundBlur_0_163" result="effect2_dropShadow_0_163"/>
<feBlend mode="normal" in="SourceGraphic" in2="effect2_dropShadow_0_163" result="shape"/>
</filter>
<linearGradient id="paint0_linear_0_163" x1="40" y1="0" x2="40" y2="80" gradientUnits="userSpaceOnUse">
<stop stop-color="#8D2A23"/>
<stop offset="0.3125" stop-color="#451511"/>
<stop offset="0.65625" stop-color="#8D2A23"/>
<stop offset="1" stop-color="#E34439"/>
</linearGradient>
</defs>
</svg>
